<svg xmlns="http://www.w3.org/2000/svg" x="0px" y="0px"
width="50" height="50"
viewBox="0 0 172 172"
style=" fill:#000000;"><g fill="none" fill-rule="nonzero" stroke="none" stroke-width="1" stroke-linecap="butt" stroke-linejoin="miter" stroke-miterlimit="10" stroke-dasharray="" stroke-dashoffset="0" font-family="none" font-weight="none" font-size="none" text-anchor="none" style="mix-blend-mode: normal"><path d="M0,172v-172h172v172z" fill="none"></path><g fill="#32cd32"><path d="M3.44,30.96c-1.89888,0 -3.44,1.54112 -3.44,3.44v48.5564c0,21.19384 16.10947,39.61585 37.2689,40.81641c20.28568,1.14896 37.54379,-13.08603 41.15235,-32.09547c1.9608,2.6488 3.95385,5.11039 5.96625,7.37047l-12.14078,51.52609c-0.23736,1.02512 0.00156,2.09362 0.65172,2.92266c0.65704,0.81872 1.6483,1.30344 2.70094,1.30344h17.60985c1.59616,0 2.97114,-1.07559 3.33922,-2.62703c2.13624,-9.01624 5.4853,-23.14491 8.51938,-35.95203l3.13094,1.81406c7.4476,3.85624 15.00485,5.805 22.52125,5.805c24.74048,0 44.46544,-21.87496 40.85,-47.3c-2.39424,-16.84224 -15.34557,-30.7249 -31.97453,-34.30594c-19.36376,-4.17272 -38.02823,5.75098 -46.05031,22.24578c0,0 -0.89026,1.97606 -1.60578,3.95062c-5.676,-9.79024 -9.0092,-19.94684 -10.75672,-27.305c-0.6364,-2.6832 -1.58976,-7.54118 -1.69984,-7.85422c-0.47816,-1.38632 -1.77628,-2.31125 -3.24516,-2.31125h-17.75765c-1.89888,0 -3.44,1.54112 -3.44,3.44v49.19469c0,8.08056 -5.89197,15.30709 -13.93469,16.09141c-9.22608,0.90128 -17.02531,-6.3589 -17.02531,-15.4061v-49.88c0,-1.89888 -1.54112,-3.44 -3.44,-3.44zM130.72,65.36c9.48408,0 17.2,7.71592 17.2,17.2c0,9.48408 -7.71592,17.2 -17.2,17.2c-7.654,0 -14.74545,-4.61551 -19.71281,-8.64031c1.81288,-7.654 3.02967,-12.7804 3.05031,-12.8664c1.95392,-7.59208 8.80898,-12.89328 16.6625,-12.89328z"></path></g></g></svg>
